<svg xmlns="http://www.w3.org/2000/svg" xmlns:xlink="http://www.w3.org/1999/xlink" viewBox="0 0 88 31"><defs><clipPath id="n"><use xlink:href="#a" image-rendering="optimizeQuality" shape-rendering="geometricPrecision" text-rendering="geometricPrecision"/></clipPath><clipPath id="o"><use xlink:href="#b" image-rendering="optimizeQuality" shape-rendering="geometricPrecision" text-rendering="geometricPrecision"/></clipPath><clipPath id="p"><use xlink:href="#c" image-rendering="optimizeQuality" shape-rendering="geometricPrecision" text-rendering="geometricPrecision"/></clipPath><clipPath id="q"><use xlink:href="#d" image-rendering="optimizeQuality" shape-rendering="geometricPrecision" text-rendering="geometricPrecision"/></clipPath><clipPath id="r"><use xlink:href="#e" image-rendering="optimizeQuality" shape-rendering="geometricPrecision" text-rendering="geometricPrecision"/></clipPath><clipPath id="s"><use xlink:href="#f" image-rendering="optimizeQuality" shape-rendering="geometricPrecision" text-rendering="geometricPrecision"/></clipPath><clipPath id="t"><use xlink:href="#g" image-rendering="optimizeQuality" shape-rendering="geometricPrecision" text-rendering="geometricPrecision"/></clipPath><clipPath id="u"><use xlink:href="#h" image-rendering="optimizeQuality" shape-rendering="geometricPrecision" text-rendering="geometricPrecision"/></clipPath><clipPath id="v"><use xlink:href="#i" image-rendering="optimizeQuality" shape-rendering="geometricPrecision" text-rendering="geometricPrecision"/></clipPath><clipPath id="w"><use xlink:href="#j" image-rendering="optimizeQuality" shape-rendering="geometricPrecision" text-rendering="geometricPrecision"/></clipPath><clipPath id="x"><use xlink:href="#k" image-rendering="optimizeQuality" shape-rendering="geometricPrecision" text-rendering="geometricPrecision"/></clipPath><clipPath id="y"><use xlink:href="#l" image-rendering="optimizeQuality" shape-rendering="geometricPrecision" text-rendering="geometricPrecision"/></clipPath><clipPath id="z"><use xlink:href="#m" image-rendering="optimizeQuality" shape-rendering="geometricPrecision" text-rendering="geometricPrecision"/></clipPath><path id="a" d="M0 30h83v1H0z"/><path id="b" d="M82 0h1v31h-1z"/><path id="c" d="M0 30h83v1H0z"/><path id="d" d="M2.2 29h80v1h-80z"/><path id="e" d="M0 30h83v1H0z"/><path id="f" d="M82 0h1v31h-1z"/><path id="g" d="M0 30h83v1H0z"/><path id="h" d="M80.8 1h1v30h-1z"/><path id="i" d="M0 30h83v1H0z"/><path id="j" d="M2.2 29h80v1h-80z"/><path id="k" d="M0 30h83v1H0z"/><path id="l" d="M82 0h1v31h-1z"/><path id="m" d="M0 30h83v1H0z"/></defs><g image-rendering="optimizeQuality" shape-rendering="geometricPrecision" text-rendering="geometricPrecision"><path fill="none" d="M0 0h88v31H0z"/><path fill="#fc6" d="M0 0h83v31H0z"/><path fill="#fff" d="M.4 0h36.4v31H.4z"/><path fill="none" d="M4.7 2.3h40v24.6h-40z"/><use xlink:href="#a" fill="#504d4c"/><g clip-path="url(#n)"><path fill="none" d="M0 0h88v31H0z"/><path fill="#4e4b3f" d="M0 0h83v31H0z"/><path fill="#4f4f4f" d="M.4 0h36.4v31H.4z"/></g><use xlink:href="#b" fill="#504d4c"/><g clip-path="url(#o)"><path fill="none" d="M0 0h88v31H0z"/><path fill="#4e4b3f" d="M0 0h83v31H0z"/><use xlink:href="#c" fill="#191919"/><g clip-path="url(#p)"><path fill="none" d="M0 0h88v31H0z"/><path fill="#191917" d="M0 0h83v31H0z"/><path fill="#191919" d="M.4 0h36.4v31H.4z"/></g></g><path fill="#ccc" d="M0 0h1v31H0z"/><use xlink:href="#d" fill="#9e9c9c"/><g clip-path="url(#q)"><path fill="none" d="M0 0h88v31H0z"/><path fill="#b39f67" d="M0 0h83v31H0z"/><path fill="#b5b5b5" d="M.4 0h36.4v31H.4z"/><use xlink:href="#e" fill="#383838"/><g clip-path="url(#r)"><path fill="none" d="M0 0h88v31H0z"/><path fill="#383530" d="M0 0h83v31H0z"/><path fill="#383838" d="M.4 0h36.4v31H.4z"/></g><use xlink:href="#f" fill="#383838"/><g clip-path="url(#s)"><path fill="none" d="M0 0h88v31H0z"/><path fill="#383530" d="M0 0h83v31H0z"/><use xlink:href="#g" fill="#131313"/><g clip-path="url(#t)"><path fill="none" d="M0 0h88v31H0z"/><g fill="#131313"><path d="M0 0h83v31H0z"/><path d="M.4 0h36.4v31H.4z"/></g></g></g></g><use xlink:href="#h" fill="#9e9c9c"/><g clip-path="url(#u)"><path fill="none" d="M0 0h88v31H0z"/><path fill="#b39f67" d="M0 0h83v31H0z"/><use xlink:href="#i" fill="#383838"/><g clip-path="url(#v)"><path fill="none" d="M0 0h88v31H0z"/><path fill="#383530" d="M0 0h83v31H0z"/><path fill="#383838" d="M.4 0h36.4v31H.4z"/></g><use xlink:href="#j" fill="#818181"/><g clip-path="url(#w)"><path fill="none" d="M0 0h88v31H0z"/><path fill="#807659" d="M0 0h83v31H0z"/><path fill="#818181" d="M.4 0h36.4v31H.4z"/><use xlink:href="#k" fill="#272727"/><g clip-path="url(#x)"><path fill="none" d="M0 0h88v31H0z"/><path fill="#272623" d="M0 0h83v31H0z"/><path fill="#272727" d="M.4 0h36.4v31H.4z"/></g><use xlink:href="#l" fill="#272727"/><g clip-path="url(#y)"><path fill="none" d="M0 0h88v31H0z"/><path fill="#272623" d="M0 0h83v31H0z"/><use xlink:href="#m" fill="#101010"/><g clip-path="url(#z)"><path fill="none" d="M0 0h88v31H0z"/><g fill="#101010"><path d="M0 0h83v31H0z"/><path d="M.4 0h36.4v31H.4z"/></g></g></g></g></g><path fill="#ccc" d="M0 0h83v1H0z"/><path fill="none" stroke="#900" stroke-miterlimit="3.9" stroke-width="4.8" d="m68.3 18.9 6 5.5L86 12.6" clip-rule="evenodd"/><path fill-rule="evenodd" d="m45.8 18.3-1.1.4a5 5 0 0 1-1.2.2c-1.2 0-2.2-.4-2.9-1s-1-1.6-1-2.8.3-2.1 1-2.8a4 4 0 0 1 3-1 5 5 0 0 1 2.2.6v1.5l-1-.5-1.1-.2c-.7 0-1.2.2-1.6.6s-.6 1-.6 1.8.2 1.4.6 1.8c.4.4.9.6 1.6.6l1-.1 1-.6v1.5zm6.7-6.6v1.5l-1.2-.4a4.7 4.7 0 0 0-1-.2l-1 .2c-.2.1-.4.4-.4.6l.2.5.8.3.8.1c.8.2 1.4.4 1.8.8s.5.8.5 1.4c0 .8-.3 1.4-.8 1.8-.4.4-1.2.6-2.1.6a7.3 7.3 0 0 1-2.8-.6v-1.5l1.3.5 1.3.2c.4 0 .7 0 1-.2s.3-.3.3-.6c0-.2-.1-.4-.3-.5-.1-.1-.4-.3-.9-.4l-.7-.1c-.7-.2-1.2-.4-1.6-.8s-.5-.8-.5-1.3c0-.8.2-1.3.7-1.7s1.2-.6 2-.6a9 9 0 0 1 2.6.3zm7.3 0v1.5l-1.2-.4-1-.2-1 .2c-.2.1-.4.4-.4.6 0 .2.1.4.3.5l.8.3.8.1c.8.2 1.3.4 1.7.8s.5.8.5 1.4c0 .8-.3 1.4-.7 1.8-.5.4-1.2.6-2.2.6a7.3 7.3 0 0 1-2.8-.6v-1.5l1.3.5 1.3.2c.4 0 .7 0 1-.2s.3-.3.3-.6c0-.2-.1-.4-.3-.5l-.8-.4-.8-.1c-.7-.2-1.2-.4-1.6-.8s-.5-.8-.5-1.3c0-.8.3-1.3.7-1.7s1.2-.6 2-.6a9 9 0 0 1 2.6.3z" clip-rule="evenodd"/><path d="m33 7 .4 2-1.2 2.3s-.4-1-1.2-1.5c-.6-.4-1-.5-1.7-.4-.8.2-1.8 1.2-2.2 2.4-.5 1.5-.5 2.2-.5 2.9l.1 1.6S26 15 26 13.1c0-1.4.2-2.7.9-4 .6-1 1.4-1.7 2.1-1.8.8 0 1.4.3 1.9.7.5.4 1 1.4 1 1.4L33.1 7zm.2 11.6-.8 1.2c-.3.4-1 1-1.7 1.4-.7.3-1 .3-1.8.3s-1.3-.5-1.6-.7a6.5 6.5 0 0 1-2-2.6l.5 1.4c0 .2.4 1 .9 1.6.4.5 1.2 1.5 2.5 1.7s2.1-.3 2.3-.4l1-.9.7-1 .3-.5-.3-1.5z"/><g fill="#005a9c"><path d="m11.4 7.1 2.9 9.7L17 7.1h2.1l-4.7 16h-.2l-3-10-3 10h-.1L3.5 7h2l2.9 9.7 2-6.5-1-3.2h2z"/><path d="M25 18c0 1.4-.3 2.6-1 3.6S22.1 23 21 23c-1 0-1.8-.3-2.5-1s-1.1-1.3-1.5-2.3l1.6-.7c.3.6.6 1.1 1 1.5s.8.5 1.3.5c.6 0 1-.3 1.4-1s.6-1.3.6-2.1c0-1-.2-1.7-.6-2.3-.5-.6-1.2-.9-2.2-.9h-.8v-1L22 9.2h-3.3l-1 1.6h-.5V7h7.7v1l-3 5a4 4 0 0 1 2.4 1.8c.5.9.8 1.9.8 3z"/></g></g></svg>